<svg id="Capa_1" data-name="Capa 1" xmlns="http://www.w3.org/2000/svg" viewBox="0 0 280.67 92.67"><defs><style>.cls-1{fill:#7069fd;}.cls-2{fill:gray;}</style></defs><title>Logo Systig</title><path class="cls-1" d="M24.8,9.94a42.84,42.84,0,0,1,52.87,6l-4.27,5.69H38.52c-6.66,0-10.74,3.3-12.29,9.9l-2.39,9.9q-2.33,9.9,7.57,9.9H59.16c1.29,0,1.81.65,1.49,1.94l-1.42,6a2.29,2.29,0,0,1-2.46,2H19.17L12.05,70.5c-.32-.45-.65-1-1-1.49A42.83,42.83,0,0,1,24.8,9.94Zm58,12.16c.39.52.71,1,1,1.55A42.88,42.88,0,0,1,17.23,76.72l4.34-5.63H56.64c6.47,0,10.48-3.3,12-10l2.14-9h.06c1.68-7.18-.84-10.74-7.44-10.74H35.8q-2,0-1.55-1.94l1.42-6a2.25,2.25,0,0,1,2.46-1.94H75.72Z"/><path class="cls-1" d="M115.76,32.92a2.31,2.31,0,0,1,.83-2,2.75,2.75,0,0,1,1.61-.6H121a3.51,3.51,0,0,1,3.25,2.33q1.11,2.33,5,2.33l8.3.17q4.18,0,4.18-2.73,0-2.06-5.1-3.25-2.28-.55-5-1.08t-5.47-1.34a33.86,33.86,0,0,1-5-1.9,9.72,9.72,0,0,1-3.69-3,7.35,7.35,0,0,1-1.41-4.5A8.67,8.67,0,0,1,119.46,10q3.39-2.57,11.67-2.57l6,.14a15.9,15.9,0,0,1,8.77,2.5q3.9,2.5,3.9,6.25a2.35,2.35,0,0,1-.83,2,2.7,2.7,0,0,1-1.59.62h-2.82a3.51,3.51,0,0,1-3.25-2.34q-1.11-2.34-5-2.34l-7.14-.14q-4.18,0-4.18,2.73,0,1.49,2.65,2.44A43.57,43.57,0,0,0,134.06,21q3.76.72,7.56,1.74a15.72,15.72,0,0,1,6.44,3.36,7.46,7.46,0,0,1,2.65,5.83,8.66,8.66,0,0,1-3.41,7.34q-3.41,2.58-11.66,2.57l-7.19-.14a16,16,0,0,1-8.78-2.5Q115.76,36.67,115.76,32.92Z"/><path class="cls-1" d="M159.42,44.1l3.11.4q3.35,0,4.67-4.91a9.7,9.7,0,0,1-6.74-2.43q-2.71-2.43-4.65-8.65L152.28,17a1.26,1.26,0,0,1-.07-.44,1,1,0,0,1,.3-.61,1.16,1.16,0,0,1,.89-.38h5a2.19,2.19,0,0,1,1.32.46,2.11,2.11,0,0,1,.82,1.15l3.11,10.06A15.76,15.76,0,0,0,166,32.42a3.6,3.6,0,0,0,2.83,1.42l4.72-16.61a2.24,2.24,0,0,1,.75-1.15,1.9,1.9,0,0,1,1.25-.46h5a1,1,0,0,1,.88.38,1.15,1.15,0,0,1,.29.63,1.56,1.56,0,0,1,0,.42l-6.22,22.16q-1.66,5.89-4.12,8.4A8.45,8.45,0,0,1,165,50.12a35.78,35.78,0,0,1-5.47-.28,4.14,4.14,0,0,1-2-.7,1.34,1.34,0,0,1-.4-1V45.57a1.45,1.45,0,0,1,.4-1.06,1.39,1.39,0,0,1,1-.42Z"/><path class="cls-1" d="M183.6,22.81q0-7.66,12.36-7.66,13,0,13,6.81a1.42,1.42,0,0,1-.4,1,1.39,1.39,0,0,1-1,.42H204A3.56,3.56,0,0,1,201.11,22q-1.16-1.44-4.58-1.44-4.7,0-4.7,2.28,0,1.07,1.84,1.78a27.81,27.81,0,0,0,4.49,1.25,51.28,51.28,0,0,1,5.28,1.36,10.94,10.94,0,0,1,4.47,2.65,6.18,6.18,0,0,1,1.84,4.59q0,7.66-13.05,7.66t-13.05-6.79a1.42,1.42,0,0,1,1.47-1.47h3.54a3.56,3.56,0,0,1,2.87,1.44q1.16,1.44,4.58,1.44,5.43,0,5.43-2.28,0-1.07-1.84-1.78a29.36,29.36,0,0,0-4.5-1.27q-2.66-.56-5.28-1.38a10.86,10.86,0,0,1-4.47-2.65A6.14,6.14,0,0,1,183.6,22.81Z"/><path class="cls-1" d="M226.53,36.48l3.25-.28h.88a1.46,1.46,0,0,1,1.06.4,1.39,1.39,0,0,1,.42,1v2.54a1.29,1.29,0,0,1-.42.94,1.83,1.83,0,0,1-1.06.51,34,34,0,0,1-6.31.47q-10.2,0-10.2-10.68V9.07A1.43,1.43,0,0,1,214.55,8a1.4,1.4,0,0,1,1-.42h5.32a1.4,1.4,0,0,1,1,.42,1.43,1.43,0,0,1,.42,1.06V17H229a1.42,1.42,0,0,1,1,.4,1.39,1.39,0,0,1,.42,1v2.82a1.39,1.39,0,0,1-.42,1,1.42,1.42,0,0,1-1,.4h-6.62v8.71a5.54,5.54,0,0,0,1.14,3.74A3.81,3.81,0,0,0,226.53,36.48Z"/><path class="cls-1" d="M236,10.66V9.85a2.72,2.72,0,0,1,.72-2,2.68,2.68,0,0,1,2-.74h2.94a2.72,2.72,0,0,1,2,.72,2.69,2.69,0,0,1,.74,2v.81a2.72,2.72,0,0,1-.72,2,2.68,2.68,0,0,1-2,.74h-2.94A2.54,2.54,0,0,1,236,10.66Zm.09,29.52V17.66a1.39,1.39,0,0,1,.42-1,1.42,1.42,0,0,1,1-.4h5.32a1.39,1.39,0,0,1,1,.42,1.42,1.42,0,0,1,.4,1V40.18a1.39,1.39,0,0,1-.42,1,1.42,1.42,0,0,1-1,.4h-5.32a1.38,1.38,0,0,1-1.45-1.45Z"/><path class="cls-1" d="M252.09,36.38q-3.31-3.25-3.31-9t3.77-9q3.77-3.23,10.82-3.23a35,35,0,0,1,7.14.77,18.77,18.77,0,0,1,5.58,1.89v22q0,5.29-3.49,7.82t-9.79,2.53q-6.3,0-9.71-1.58a5.37,5.37,0,0,1-3.41-5.21,1.42,1.42,0,0,1,1.47-1.47h3.54a3.33,3.33,0,0,1,2.73,1.26q1.31,1.61,4.64,1.61t4.57-1.09q1.23-1.09,1.23-3.87V38.66a28.66,28.66,0,0,1-7.1,1A11.88,11.88,0,0,1,252.09,36.38Zm10.79-15.5q-5.62,0-5.62,6.49t5.48,6.51a21.64,21.64,0,0,0,5.15-.71V21.41A19.09,19.09,0,0,0,262.88,20.89Z"/><path class="cls-2" d="M143.31,75.23h-6.59l-1.16,3.31h-3.47l6.06-16.26h3.75l6,16.26h-3.47Zm-.88-2.49L140,65.8l-2.42,6.94Z"/><path class="cls-2" d="M153,76h5.52v2.52h-8.81V62.09H153Z"/><path class="cls-2" d="M173,63.51a7.49,7.49,0,0,1,2.68,4.31h-3.45a4.51,4.51,0,0,0-1.67-2.1,4.7,4.7,0,0,0-2.71-.77,4.29,4.29,0,0,0-4,2.52,7.17,7.17,0,0,0,0,5.66,4.29,4.29,0,0,0,4,2.52,4.7,4.7,0,0,0,2.71-.77,4.51,4.51,0,0,0,1.67-2.1h3.45A7.49,7.49,0,0,1,173,77.09a8.86,8.86,0,0,1-9.26.52,7.21,7.21,0,0,1-2.79-3,10,10,0,0,1,0-8.69,7.23,7.23,0,0,1,2.78-3,8.88,8.88,0,0,1,9.27.52Z"/><path class="cls-2" d="M188.15,75.23h-6.59l-1.16,3.31h-3.47L183,62.28h3.75l6,16.26h-3.47Zm-.88-2.49-2.42-6.94-2.42,6.94Z"/><path class="cls-2" d="M197.82,76h5.52v2.52h-8.81V62.09h3.28Z"/><path class="cls-2" d="M215.31,75.23h-6.59l-1.16,3.31h-3.47l6.06-16.26h3.75l6,16.26h-3.47Zm-.88-2.49L212,65.8l-2.42,6.94Z"/><path class="cls-2" d="M237,62.09V64.7h-6.92v4.4h5.54v2.52h-5.54v6.92h-3.28V62.09Z"/><path class="cls-2" d="M241.91,75.11v3.42h-3.54V75.11Z"/><path class="cls-2" d="M247.39,72.44v6.1H244.1V62.09h6a6.18,6.18,0,0,1,4.39,1.4,5,5,0,0,1,1.48,3.8A4.84,4.84,0,0,1,254.43,71a6.21,6.21,0,0,1-4.34,1.4Zm5.24-5.15A2.51,2.51,0,0,0,252,65.4a3.12,3.12,0,0,0-2.21-.65h-2.35V69.8h2.35Q252.63,69.8,252.63,67.29Z"/><path class="cls-2" d="M260.83,75.11v3.42h-3.54V75.11Z"/></svg>