<svg width="92" height="121" viewBox="0 0 92 121" fill="none" xmlns="http://www.w3.org/2000/svg">
<path d="M62.5118 4.82769C68.0401 7.47503 72.2447 11.2125 75.0478 15.9621C77.9287 20.7118 79.3303 25.9286 79.3303 31.7683C79.3303 39.0874 77.3058 45.0829 73.3348 49.7547C69.3638 54.4265 64.0691 57.3074 57.5286 58.3975V59.1761C73.4127 63.9258 81.3547 73.2693 81.3547 87.2068C81.3547 97.0176 78.0844 104.882 71.5439 110.955C65.0035 117.028 55.7377 120.065 43.8247 120.065C31.133 120.065 21.0887 116.951 13.536 110.644C6.0611 104.259 1.85649 94.8374 1 82.1457H23.191C23.736 87.9076 25.6047 92.5015 28.875 95.9275C32.1452 99.2756 36.817 100.989 42.8125 100.989C47.9514 100.989 52.0003 99.5871 54.8812 96.7061C57.7622 93.8252 59.2416 90.1656 59.2416 85.4938C59.2416 80.0434 57.1393 75.8388 52.9347 72.9579C48.7301 70.0769 42.5789 68.5975 34.4033 68.5975H29.7315V50.0661H34.4033C49.4308 50.2997 56.9836 45.0829 56.9836 34.4157C56.9836 29.8217 55.6599 26.1622 52.9347 23.5148C50.2873 20.8675 46.6278 19.5438 41.956 19.5438C37.1285 19.5438 33.1575 21.1011 30.0429 24.1377C26.9284 27.1744 25.1376 31.4569 24.7482 36.9073H2.63512C3.25803 25.3057 7.07332 16.3514 13.9253 10.1224C20.7772 3.89333 30.3544 0.778809 42.5789 0.778809C50.3652 0.778809 56.9836 2.10248 62.5118 4.82769Z" stroke="white" stroke-width="1.017" stroke-miterlimit="10"/>
<path d="M78.4739 18.7652C82.4449 20.7118 85.4037 23.3591 87.4281 26.7072C89.4526 30.0554 90.4648 33.8706 90.4648 37.9974C90.4648 43.2142 89.0632 47.4967 86.1823 50.8448C83.3014 54.1929 79.5639 56.2174 74.8922 56.996V57.541C86.2602 60.8891 91.9442 67.5854 91.9442 77.5518C91.9442 84.5595 89.6083 90.2435 84.9365 94.526C80.2647 98.8863 73.6464 101.066 65.1593 101.066C56.1272 101.066 48.8859 98.8085 43.5133 94.2924C38.1408 89.7763 35.1041 83.0023 34.5591 73.9701H50.4432C50.8325 78.0969 52.1561 81.3671 54.5699 83.8587C56.9058 86.2725 60.2539 87.5183 64.5364 87.5183C68.1959 87.5183 71.0769 86.5061 73.1792 84.4817C75.2815 82.4572 76.2937 79.8099 76.2937 76.4618C76.2937 72.5686 74.8143 69.5319 71.7776 67.5075C68.8188 65.4052 64.3806 64.393 58.5409 64.393H55.1149V51.1562H58.4631C69.2082 51.312 74.5807 47.5746 74.5807 39.944C74.5807 36.6737 73.6464 34.0264 71.6998 32.1577C69.7532 30.2889 67.1837 29.3546 63.8356 29.3546C60.4096 29.3546 57.5287 30.4447 55.3485 32.6248C53.0905 34.805 51.8447 37.8417 51.5332 41.8127H35.6492C36.1163 33.4813 38.7637 27.0966 43.7469 22.6584C48.6523 18.1423 55.5042 15.8843 64.2249 15.8843C69.7532 15.8843 74.5028 16.8186 78.4739 18.7652Z" fill="#00CFB4"/>
</svg>
