<svg width="97" height="124" viewBox="0 0 97 124" fill="none" xmlns="http://www.w3.org/2000/svg">
<path d="M8.31913 16.8062C11.3558 12.0566 15.9497 8.24127 22.023 5.36033C28.0964 2.4794 35.4155 1 43.9804 1C52.5454 1 59.8645 2.4794 65.9378 5.36033C72.0111 8.24127 76.605 12.0566 79.6417 16.8062C82.6784 21.5559 84.2356 26.617 84.2356 32.1452C84.2356 38.3743 82.7562 43.669 79.7196 48.0293C76.6829 52.3896 72.1669 55.6599 66.1714 57.7622C72.9455 60.3317 78.0844 64.0691 81.744 68.9745C85.3257 73.8798 87.1166 79.7974 87.1166 86.8051C87.1166 94.3578 85.2479 100.82 81.5104 106.193C77.773 111.643 72.634 115.692 66.0935 118.495C59.6309 121.298 52.2339 122.7 43.9804 122.7C35.7269 122.7 28.3299 121.298 21.8673 118.495C15.4047 115.692 10.2657 111.566 6.52828 106.193C2.79085 100.743 1 94.28 1 86.8051C1 79.7974 2.79085 73.8798 6.37255 68.9745C9.95425 64.0691 15.1711 60.3317 21.9452 57.7622C15.9497 55.582 11.3558 52.3118 8.31913 47.9514C5.28247 43.5132 3.72521 38.2186 3.72521 32.0674C3.72521 26.617 5.28247 21.5559 8.31913 16.8062ZM28.7193 98.9518C32.4567 102.3 37.5956 103.935 44.0583 103.935C50.5209 103.935 55.6599 102.3 59.4752 98.9518C63.2905 95.6036 65.1592 91.0876 65.1592 85.4036C65.1592 79.6417 63.2126 75.2035 59.2416 72.089C55.3484 69.0523 50.2095 67.4951 43.9804 67.4951C37.8292 67.4951 32.846 69.0523 28.9528 72.089C25.0597 75.1257 23.0353 79.5638 23.0353 85.4036C23.1131 91.0876 24.9818 95.6036 28.7193 98.9518ZM30.9773 47.7178C34.1697 50.5209 38.53 51.9225 44.0583 51.9225C49.6644 51.9225 54.0248 50.5209 57.295 47.7178C60.4874 44.9148 62.1225 40.9438 62.1225 35.8048C62.1225 30.6658 60.4874 26.617 57.2171 23.8139C53.9469 20.9329 49.5866 19.5314 44.0583 19.5314C38.6857 19.5314 34.4033 20.9329 31.0551 23.8139C27.7849 26.6948 26.1498 30.6658 26.1498 35.8048C26.1498 40.9438 27.7849 44.9148 30.9773 47.7178Z" stroke="white" stroke-width="1.017" stroke-miterlimit="10"/>
<path d="M40.1651 27.6291C42.3453 24.281 45.6155 21.5558 49.9759 19.4535C54.3362 17.3512 59.553 16.339 65.7042 16.339C71.8554 16.339 77.0722 17.3512 81.4325 19.4535C85.7929 21.5558 89.0631 24.281 91.2433 27.6291C93.4235 30.9772 94.5135 34.6368 94.5135 38.6078C94.5135 43.046 93.4234 46.8613 91.3211 49.9758C89.141 53.0904 85.9486 55.4263 81.6661 56.9835C86.4936 58.8522 90.2311 61.4996 92.8005 65.0034C95.37 68.5072 96.6937 72.7119 96.6937 77.773C96.6937 83.1455 95.37 87.7394 92.6448 91.6326C89.9196 95.5257 86.26 98.4845 81.6661 100.431C76.9943 102.456 71.6997 103.39 65.8599 103.39C59.9423 103.39 54.6476 102.378 50.0537 100.431C45.3819 98.4067 41.7224 95.5257 39.075 91.6326C36.4277 87.7394 35.104 83.1455 35.104 77.773C35.104 72.7897 36.4277 68.5072 38.9972 65.0034C41.5666 61.4996 45.3041 58.8522 50.1316 56.9835C45.8491 55.4263 42.5789 53.0904 40.3987 49.9758C38.2185 46.8613 37.1284 43.046 37.1284 38.6857C36.8949 34.6368 37.9849 30.9772 40.1651 27.6291ZM54.8034 86.4158C57.5286 88.8295 61.1103 89.9975 65.7821 89.9975C70.4538 89.9975 74.0355 88.8295 76.7608 86.4158C79.486 84.002 80.8875 80.8096 80.8875 76.7607C80.8875 72.634 79.486 69.4416 76.6829 67.2614C73.8798 65.0813 70.2202 63.9912 65.7821 63.9912C61.4217 63.9912 57.84 65.0813 55.037 67.2614C52.2339 69.4416 50.8323 72.634 50.8323 76.7607C50.7545 80.8096 52.0782 84.002 54.8034 86.4158ZM56.3606 49.7422C58.6965 51.7667 61.811 52.701 65.7042 52.701C69.6752 52.701 72.8676 51.6888 75.1256 49.7422C77.4615 47.7178 78.5516 44.9147 78.5516 41.2552C78.5516 37.5956 77.3837 34.7147 75.0478 32.6902C72.7119 30.6658 69.5973 29.6536 65.6263 29.6536C61.811 29.6536 58.6965 30.6658 56.3606 32.6902C54.0247 34.7147 52.8568 37.5956 52.8568 41.2552C52.8568 44.9147 54.1026 47.7178 56.3606 49.7422Z" fill="#00CFB4"/>
</svg>
