<svg xmlns="http://www.w3.org/2000/svg" xmlns:xlink="http://www.w3.org/1999/xlink" viewBox="0 0 75.05 75.08"><defs><style>.cls-1{fill:none;}.cls-2{isolation:isolate;}.cls-3{clip-path:url(#clip-path);}.cls-4{mix-blend-mode:screen;}.cls-5{fill:#fff;}</style><clipPath id="clip-path"><rect class="cls-1" x="-994.97" y="-1066.63" width="1922.5" height="721"/></clipPath></defs><title>Home</title><g class="cls-2"><g id="Capa_1" data-name="Capa 1"><path class="cls-5" d="M63.32,14.66a1.47,1.47,0,1,0,1.47,1.47A1.47,1.47,0,0,0,63.32,14.66Z"/><path class="cls-5" d="M11.73,14.66a1.47,1.47,0,1,0,1.47,1.47A1.47,1.47,0,0,0,11.73,14.66Z"/><path class="cls-5" d="M73.58,32.25H71.83a33.3,33.3,0,0,0-3.95-12,1.47,1.47,0,0,0-2.56,1.43,30.38,30.38,0,0,1,3.55,10.55H67.72a1.47,1.47,0,0,0-1.47,1.47v5.86A1.47,1.47,0,0,0,67.72,41h5.86A1.47,1.47,0,0,0,75,39.58V33.71A1.47,1.47,0,0,0,73.58,32.25Zm-1.47,5.86H69.18V35.18h2.93Z"/><path class="cls-5" d="M53.64,42.89s0,0,0-.07v-.15l0-.11v0l0-.13h0l-.07-.14L38.81,15.42a1.47,1.47,0,0,0-2.57,0L21.58,42.24l-.07.14h0l0,.13v0l0,.11v.15s0,0,0,.07,0,0,0,.06v0s0,0,0,.07,0,.06,0,.09v.06l0,.09v.05l0,.1v0l5.29,14a4.4,4.4,0,0,0,.48,8.09v8A1.47,1.47,0,0,0,28.73,75H46.32a1.47,1.47,0,0,0,1.47-1.47v-8a4.4,4.4,0,0,0,.48-8.09l5.29-14v0l0-.1v-.05l0-.09v-.06s0-.06,0-.09,0,0,0-.07v0S53.65,42.91,53.64,42.89ZM37.52,41.48a1.47,1.47,0,1,1-1.47,1.47A1.47,1.47,0,0,1,37.52,41.48Zm7.33,30.63H30.19v-6.3H44.85Zm2.5-9.66a1.46,1.46,0,0,1-1,.43H28.73a1.47,1.47,0,0,1,0-2.93H46.32a1.46,1.46,0,0,1,1,2.5ZM45.3,57H29.74L25,44.41h3.74a1.47,1.47,0,1,0,0-2.93H25.34L36.06,21.86V38.8a4.4,4.4,0,1,0,2.93,0V21.86L49.71,41.48H46.32a1.47,1.47,0,0,0,0,2.93h3.74Z"/><path class="cls-5" d="M9.16,19.7a1.47,1.47,0,0,0-2,.57,33.29,33.29,0,0,0-3.95,12H1.47A1.47,1.47,0,0,0,0,33.71v5.86A1.47,1.47,0,0,0,1.47,41H7.33a1.47,1.47,0,0,0,1.47-1.47V33.71a1.47,1.47,0,0,0-1.47-1.47H6.17A30.38,30.38,0,0,1,9.73,21.7,1.47,1.47,0,0,0,9.16,19.7ZM5.86,38.11H2.93V35.18H5.86Z"/><path class="cls-5" d="M70.65,0a4.4,4.4,0,0,0-4.15,2.93H41.92V1.47A1.47,1.47,0,0,0,40.46,0H34.59a1.47,1.47,0,0,0-1.47,1.47V2.93H8.54a4.4,4.4,0,1,0,0,2.93H23.28a32.45,32.45,0,0,0-8.35,5,1.47,1.47,0,1,0,1.89,2.24A33,33,0,0,1,33.13,6.17V7.33a1.47,1.47,0,0,0,1.47,1.47h5.86a1.47,1.47,0,0,0,1.47-1.47V6.17A33.05,33.05,0,0,1,58.23,13.1a1.47,1.47,0,0,0,1.89-2.24,32.45,32.45,0,0,0-8.35-5H66.51A4.4,4.4,0,1,0,70.65,0ZM4.4,5.86A1.47,1.47,0,1,1,5.86,4.4,1.47,1.47,0,0,1,4.4,5.86ZM39,4.4V5.86H36.06V2.93H39ZM70.65,5.86A1.47,1.47,0,1,1,72.12,4.4,1.47,1.47,0,0,1,70.65,5.86Z"/></g></g></svg>