<svg width="20" height="20" viewBox="0 0 20 20" fill="none" xmlns="http://www.w3.org/2000/svg">
<path d="M17.5 2.60002C16.5 1.60002 15 0.900024 13.4 0.900024H5.99995C4.39995 0.900024 2.99996 1.60002 1.89996 2.60002C0.899956 3.60002 0.199951 5.10002 0.199951 6.70002V14.2C0.199951 15.8 0.899956 17.2 1.89996 18.3C2.89996 19.3 4.39995 20 5.99995 20H13.4C15 20 16.4 19.3 17.5 18.3C18.6 17.3 19.2 15.8 19.2 14.2V6.70002C19.2 5.10002 18.6 3.60002 17.5 2.60002ZM17.5 14.2C17.5 15.3 17 16.3 16.3 17.1C15.6 17.8 14.6 18.3 13.4 18.3H5.99995C4.89995 18.3 3.89995 17.8 3.09995 17.1C2.39995 16.4 1.89996 15.4 1.89996 14.2V6.70002C1.89996 5.60002 2.39995 4.60002 3.09995 3.80002C3.79995 3.10002 4.79995 2.60002 5.99995 2.60002H13.4C14.5 2.60002 15.5 3.10002 16.3 3.80002C17 4.50002 17.5 5.50002 17.5 6.70002V14.2Z" fill="white"/>
<path d="M14.9 6.30002C15.5076 6.30002 16 5.80753 16 5.20002C16 4.59251 15.5076 4.10002 14.9 4.10002C14.2925 4.10002 13.8 4.59251 13.8 5.20002C13.8 5.80753 14.2925 6.30002 14.9 6.30002Z" fill="white"/>
<path d="M13.2 6.90002C12.3 6.00002 11.1 5.40002 9.69995 5.40002C8.29995 5.40002 7.09995 6.00002 6.19995 6.90002C5.29995 7.80002 4.69995 9.00002 4.69995 10.4C4.69995 11.8 5.29995 13 6.19995 13.9C7.09995 14.8 8.29995 15.4 9.69995 15.4C11.1 15.4 12.3 14.8 13.2 13.9C14.1 13 14.7 11.8 14.7 10.4C14.7 9.00002 14.2 7.80002 13.2 6.90002ZM12 12.7C11.4 13.3 10.6 13.7 9.69995 13.7C8.79995 13.7 7.99996 13.3 7.39996 12.7C6.79996 12.1 6.39996 11.3 6.39996 10.4C6.39996 9.50002 6.79996 8.70002 7.39996 8.10002C7.99996 7.50002 8.79995 7.10002 9.69995 7.10002C10.6 7.10002 11.4 7.50002 12 8.10002C12.6 8.70002 13 9.50002 13 10.4C13 11.3 12.6 12.1 12 12.7Z" fill="white"/>
</svg>
