<svg width="229" height="50" viewBox="0 0 229 50" fill="none" xmlns="http://www.w3.org/2000/svg">
<path d="M11.5043 3.67839C21.2121 -2.40616 33.62 -0.723201 41.4633 7.10903L39.0203 10.3455H19.2834C15.4903 10.3455 13.1759 12.2226 12.2758 15.9769L10.9257 21.6731C10.0257 25.4274 11.5043 27.3045 15.2331 27.3045H30.9841C31.6913 27.3045 32.0127 27.6929 31.8199 28.4049L30.9841 31.8356C30.7912 32.6123 30.3412 33.0007 29.5697 33.0007H8.28984L4.23959 38.3085C4.04672 38.0496 3.85385 37.7259 3.66098 37.467C-3.41089 25.9452 0.0607572 10.8633 11.5043 3.67839ZM44.4207 10.6691C44.6135 10.9928 44.8064 11.2517 44.9993 11.5753C52.0711 22.9677 48.5995 38.1143 37.2202 45.2993C27.4482 51.4485 15.0403 49.7656 7.19692 41.8686L9.63993 38.6322H29.5697C33.2343 38.6322 35.5487 36.755 36.3844 32.936L37.606 27.8224H37.6702C38.6346 23.7444 37.2202 21.6731 33.4271 21.6731H17.7404C16.969 21.6731 16.6475 21.2847 16.8404 20.5727L17.6761 17.1421C17.8047 16.43 18.319 16.0417 19.0905 16.0417H40.4347L44.4207 10.6691Z" fill="white"/>
<path d="M61.5217 26.0747C61.5217 25.6216 61.6503 25.298 61.9075 25.1038C62.1646 24.9096 62.4218 24.8449 62.6789 24.8449H64.029C64.6719 24.8449 65.1862 25.2332 65.572 25.9453C65.8934 26.6573 66.7292 27.0457 67.9507 27.0457L71.8724 27.1104C73.2225 27.1104 73.8654 26.6573 73.8654 25.8158C73.8654 25.1685 73.0296 24.6507 71.4223 24.2623C70.7152 24.0681 69.8794 23.9387 69.0436 23.7445C68.1436 23.5503 67.3078 23.3561 66.472 23.0972C65.6363 22.8383 64.8005 22.5146 64.0933 22.191C63.3861 21.8673 62.8075 21.3495 62.3575 20.7669C61.9075 20.1844 61.7146 19.4723 61.7146 18.6309C61.7146 17.1421 62.2289 15.977 63.3218 15.1355C64.4148 14.294 66.2149 13.9056 68.8508 13.9056L71.6795 13.9704C73.2225 13.9704 74.5725 14.3587 75.8583 15.1355C77.0798 15.9122 77.7227 16.9479 77.7227 18.113C77.7227 18.5661 77.5942 18.8898 77.337 19.084C77.0798 19.2782 76.8227 19.4076 76.5655 19.4076H75.2154C74.5725 19.4076 74.0582 19.0192 73.6725 18.3072C73.351 17.5952 72.5153 17.2068 71.2938 17.2068L67.8864 17.1421C66.5363 17.1421 65.8934 17.5952 65.8934 18.4367C65.8934 18.8898 66.2792 19.2782 67.1792 19.6018C68.015 19.9255 69.0436 20.1844 70.2008 20.3786C71.3581 20.5727 72.5796 20.8964 73.8011 21.22C75.0226 21.5437 75.9869 22.0615 76.8227 22.8383C77.6584 23.5503 78.1085 24.5212 78.1085 25.6216C78.1085 27.1104 77.5942 28.2755 76.5012 29.117C75.4083 29.9585 73.6082 30.3469 70.9723 30.3469L67.565 30.2821C66.022 30.2821 64.6719 29.8937 63.3861 29.117C62.1646 28.2755 61.5217 27.3046 61.5217 26.0747Z" fill="white"/>
<path d="M82.2231 31.4472L83.7018 31.6414C84.7304 31.6414 85.5019 30.8647 85.8876 29.3112C84.6018 29.3112 83.5732 28.9228 82.6731 28.146C81.8374 27.3693 81.0659 26.01 80.4873 24.0034L78.8158 18.5661C78.8158 18.5014 78.7515 18.4367 78.7515 18.3719C78.7515 18.3072 78.8158 18.1777 78.88 18.113C78.9443 17.9836 79.1372 17.9188 79.3301 17.9188H81.7088C81.9017 17.9188 82.1588 17.9836 82.3517 18.113C82.5446 18.2425 82.6731 18.4367 82.7374 18.6308L84.2161 23.4208C84.6018 24.5859 84.9876 25.4274 85.309 25.8805C85.6948 26.3336 86.1448 26.5278 86.6591 26.5278L88.9092 18.6308C88.9735 18.4367 89.1021 18.2425 89.295 18.113C89.4878 17.9836 89.6807 17.9188 89.8736 17.9188H92.2523C92.4452 17.9188 92.5738 17.9836 92.638 18.113C92.7023 18.2425 92.7666 18.3072 92.7666 18.4367C92.7666 18.5014 92.7666 18.5661 92.7666 18.6308L89.8093 29.117C89.295 30.9941 88.6521 32.3534 87.8806 33.1302C87.1091 33.9069 86.0805 34.36 84.859 34.36C83.6375 34.36 82.8017 34.2953 82.2874 34.2306C81.7731 34.1659 81.4516 34.0364 81.3231 33.9069C81.1945 33.7775 81.1302 33.648 81.1302 33.4538V32.224C81.1302 32.0298 81.1945 31.8356 81.3231 31.7061C81.4516 31.5767 81.6445 31.512 81.8374 31.512H82.2231V31.4472Z" fill="white"/>
<path d="M93.6665 21.2847C93.6665 18.825 95.5952 17.6599 99.5169 17.6599C103.631 17.6599 105.689 18.7603 105.689 20.8964C105.689 21.0906 105.624 21.2847 105.496 21.4142C105.367 21.5437 105.174 21.6084 104.982 21.6084H103.31C102.796 21.6084 102.346 21.3495 101.96 20.8964C101.574 20.4433 100.867 20.1844 99.774 20.1844C98.2954 20.1844 97.5239 20.5727 97.5239 21.2847C97.5239 21.6084 97.8453 21.932 98.424 22.1262C99.0026 22.3204 99.7097 22.5793 100.546 22.7088C101.381 22.903 102.217 23.0972 103.053 23.3561C103.889 23.615 104.596 24.0681 105.174 24.6507C105.753 25.2332 106.074 25.9452 106.074 26.8515C106.074 29.3112 104.017 30.4763 99.9026 30.4763C95.7881 30.4763 93.7308 29.3759 93.7308 27.2398C93.7308 27.0456 93.7951 26.8515 93.9237 26.722C94.0522 26.5925 94.2451 26.5278 94.438 26.5278H96.1095C96.6238 26.5278 97.0739 26.7867 97.4596 27.2398C97.8453 27.6929 98.5525 27.9519 99.6455 27.9519C101.381 27.9519 102.217 27.5635 102.217 26.8515C102.217 26.5278 101.896 26.2042 101.317 26.01C100.738 25.8158 100.031 25.5569 99.1954 25.4274C98.3597 25.2332 97.5239 25.039 96.6881 24.7801C95.8524 24.5212 95.1452 24.0681 94.5666 23.4855C93.988 22.903 93.6665 22.1262 93.6665 21.2847Z" fill="white"/>
<path d="M113.982 27.8225L115.525 27.693H115.911C116.104 27.693 116.296 27.7577 116.425 27.8872C116.554 28.0167 116.618 28.2109 116.618 28.405V29.6349C116.618 29.8291 116.554 29.9585 116.425 30.088C116.296 30.2175 116.104 30.2822 115.911 30.3469C115.139 30.4764 114.175 30.5411 112.889 30.5411C109.675 30.5411 108.067 28.8581 108.067 25.4275V14.7472C108.067 14.553 108.132 14.3588 108.26 14.2293C108.389 14.0999 108.582 14.0352 108.775 14.0352H111.282C111.475 14.0352 111.668 14.0999 111.796 14.2293C111.925 14.3588 111.989 14.553 111.989 14.7472V18.5015H115.139C115.332 18.5015 115.525 18.5662 115.654 18.6957C115.782 18.8251 115.846 19.0193 115.846 19.2135V20.5728C115.846 20.767 115.782 20.9612 115.654 21.0906C115.525 21.2201 115.332 21.2848 115.139 21.2848H111.989V25.4275C111.989 26.2042 112.182 26.7868 112.503 27.2399C112.953 27.5636 113.403 27.8225 113.982 27.8225Z" fill="white"/>
<path d="M118.482 15.4592V15.0708C118.482 14.6825 118.611 14.3588 118.804 14.0999C119.061 13.841 119.318 13.7762 119.768 13.7762H121.183C121.568 13.7762 121.89 13.9057 122.147 14.0999C122.404 14.3588 122.468 14.6177 122.468 15.0708V15.4592C122.468 15.8476 122.34 16.1712 122.147 16.4301C121.89 16.6891 121.633 16.7538 121.183 16.7538H119.768C119.382 16.7538 119.061 16.6243 118.804 16.4301C118.611 16.1712 118.482 15.9123 118.482 15.4592ZM118.547 29.5702V18.8251C118.547 18.6309 118.611 18.4367 118.74 18.3073C118.868 18.1778 119.061 18.1131 119.254 18.1131H121.761C121.954 18.1131 122.147 18.1778 122.276 18.3073C122.404 18.4367 122.468 18.6309 122.468 18.8251V29.5702C122.468 29.7644 122.404 29.9585 122.276 30.088C122.147 30.2175 121.954 30.2822 121.761 30.2822H119.254C119.061 30.2822 118.868 30.2175 118.74 30.088C118.611 29.9585 118.547 29.7644 118.547 29.5702Z" fill="white"/>
<path d="M126.133 27.7577C125.104 26.722 124.59 25.298 124.59 23.4855C124.59 21.6731 125.169 20.2491 126.39 19.2134C127.612 18.1777 129.283 17.6599 131.533 17.6599C132.626 17.6599 133.719 17.7894 134.941 18.0483C136.098 18.3072 136.998 18.5661 137.576 18.9545V29.4406C137.576 31.1236 136.998 32.3534 135.905 33.1949C134.812 33.9717 133.269 34.4248 131.276 34.4248C129.283 34.4248 127.74 34.1659 126.647 33.648C125.554 33.1302 125.04 32.2887 125.04 31.1883C125.04 30.9941 125.104 30.7999 125.233 30.6705C125.361 30.541 125.554 30.4763 125.747 30.4763H127.419C127.933 30.4763 128.383 30.6705 128.704 31.0589C129.09 31.5767 129.862 31.8356 130.89 31.8356C131.919 31.8356 132.69 31.6414 133.076 31.3178C133.462 30.9941 133.655 30.3468 133.655 29.4406V28.9228C132.433 29.2464 131.34 29.3759 130.312 29.3759C128.512 29.3112 127.162 28.7933 126.133 27.7577ZM131.212 20.3785C129.412 20.3785 128.576 21.4142 128.576 23.4855C128.576 25.5569 129.412 26.5925 131.148 26.5925C131.855 26.5925 132.69 26.4631 133.591 26.2689V20.6375C132.948 20.4433 132.176 20.3785 131.212 20.3785Z" fill="white"/>
<path d="M155.899 14.4235C156.67 14.7471 157.378 15.2002 158.085 15.8475L156.863 17.2068C156.285 16.7537 155.706 16.3653 155.128 16.1712C154.549 15.977 153.906 15.8475 153.263 15.8475C152.427 15.8475 151.72 16.0417 151.206 16.4301C150.692 16.8185 150.37 17.401 150.37 18.113C150.37 18.5661 150.434 18.9545 150.627 19.2782C150.82 19.6018 151.142 19.8607 151.656 20.1196C152.17 20.3786 152.877 20.6375 153.842 20.9611C154.87 21.2848 155.642 21.6084 156.349 21.9321C156.992 22.2557 157.571 22.7735 157.956 23.4208C158.342 24.0681 158.535 24.8449 158.535 25.8158C158.535 26.722 158.278 27.5635 157.828 28.2755C157.378 28.9875 156.735 29.5701 155.899 29.9585C155.063 30.3469 154.035 30.541 152.877 30.541C150.692 30.541 148.891 29.829 147.477 28.4697L148.699 27.1104C149.341 27.6282 149.984 28.0166 150.627 28.2755C151.27 28.5344 152.042 28.6639 152.813 28.6639C153.777 28.6639 154.613 28.405 155.256 27.9519C155.899 27.434 156.22 26.7867 156.22 25.8158C156.22 25.298 156.092 24.8449 155.899 24.5212C155.706 24.1976 155.385 23.8739 154.87 23.5503C154.356 23.2914 153.713 22.9677 152.749 22.7088C151.142 22.191 149.92 21.6084 149.149 20.8964C148.377 20.1844 147.991 19.2782 147.991 18.0483C147.991 17.2716 148.184 16.4948 148.634 15.9122C149.084 15.265 149.663 14.8118 150.434 14.4235C151.206 14.0998 152.042 13.9056 153.006 13.9056C154.227 13.9704 155.128 14.1646 155.899 14.4235Z" fill="white"/>
<path d="M170.236 19.4724C171.2 20.6375 171.65 22.191 171.65 24.1329C171.65 25.4275 171.457 26.5279 171.007 27.4988C170.557 28.4698 169.978 29.2465 169.143 29.7644C168.307 30.2822 167.343 30.5411 166.25 30.5411C164.514 30.5411 163.228 29.9585 162.264 28.7934C161.299 27.6283 160.849 26.0748 160.849 24.1329C160.849 22.8383 161.042 21.7379 161.492 20.767C161.942 19.7961 162.521 19.0193 163.357 18.5015C164.192 17.9836 165.157 17.7247 166.25 17.7247C167.921 17.7895 169.271 18.3073 170.236 19.4724ZM163.099 24.1329C163.099 27.2399 164.128 28.7934 166.25 28.7934C168.307 28.7934 169.4 27.2399 169.4 24.1329C169.4 21.0259 168.371 19.4724 166.314 19.4724C164.128 19.4724 163.099 21.0259 163.099 24.1329Z" fill="white"/>
<path d="M177.886 15.0061C177.629 15.265 177.5 15.7181 177.5 16.3654V18.0483H180.458L180.201 19.6666H177.436V30.2174H175.315V19.6666H173.129V18.0483H175.315V16.3654C175.315 15.3297 175.636 14.4882 176.343 13.8409C176.986 13.1936 177.95 12.87 179.172 12.87C179.751 12.87 180.201 12.9347 180.651 12.9995C181.101 13.1289 181.551 13.2584 182.065 13.4526L181.422 15.0061C180.715 14.6824 180.008 14.553 179.3 14.553C178.593 14.553 178.143 14.7471 177.886 15.0061Z" fill="white"/>
<path d="M196.723 18.0483L193.959 30.2822H191.065L188.944 19.9902L186.758 30.2822H183.929L181.101 18.0483H183.222L185.408 28.7934L187.787 18.0483H190.165L192.416 28.7934L194.601 18.0483H196.723Z" fill="white"/>
<path d="M207.524 28.5345C207.717 28.7934 207.974 28.9876 208.295 29.0523L207.781 30.5411C207.138 30.4764 206.624 30.2822 206.238 30.0233C205.852 29.7644 205.595 29.3113 205.402 28.7287C204.566 29.9586 203.409 30.5411 201.802 30.5411C200.58 30.5411 199.68 30.2175 198.973 29.5054C198.266 28.7934 197.945 27.9519 197.945 26.8515C197.945 25.557 198.395 24.586 199.359 23.874C200.323 23.162 201.609 22.8383 203.281 22.8383H205.145V21.9321C205.145 21.0907 204.952 20.4434 204.502 20.055C204.116 19.6666 203.474 19.4724 202.573 19.4724C201.673 19.4724 200.58 19.6666 199.295 20.1197L198.78 18.5662C200.259 17.9836 201.673 17.7247 202.959 17.7247C204.374 17.7247 205.466 18.0484 206.174 18.7604C206.881 19.4724 207.202 20.4434 207.202 21.7379V27.3047C207.267 27.8872 207.331 28.2756 207.524 28.5345ZM205.145 27.0457V24.2624H203.538C201.288 24.2624 200.195 25.1039 200.195 26.7868C200.195 27.4988 200.388 28.0814 200.709 28.4051C201.03 28.7934 201.609 28.9876 202.252 28.9876C203.474 28.9229 204.438 28.2756 205.145 27.0457Z" fill="white"/>
<path d="M218.067 17.9189L217.681 19.9903C217.296 19.9255 216.974 19.8608 216.653 19.8608C215.881 19.8608 215.303 20.1197 214.853 20.7023C214.403 21.2848 214.017 22.1263 213.76 23.2914V30.2822H211.638V18.0484H213.438L213.631 20.5081C213.953 19.6019 214.403 18.8899 214.917 18.4368C215.496 17.9836 216.138 17.7247 216.846 17.7247C217.296 17.7895 217.681 17.7895 218.067 17.9189Z" fill="white"/>
<path d="M228.932 24.8449H221.217C221.282 26.2043 221.667 27.1752 222.246 27.8225C222.825 28.4698 223.596 28.7934 224.496 28.7934C225.075 28.7934 225.589 28.7287 226.103 28.5345C226.618 28.3403 227.132 28.0814 227.646 27.693L228.546 28.9876C227.261 30.0233 225.846 30.5411 224.303 30.5411C222.632 30.5411 221.282 29.9585 220.382 28.8582C219.417 27.7578 218.967 26.2043 218.967 24.2624C218.967 22.9678 219.16 21.8674 219.546 20.8965C219.932 19.9255 220.51 19.1488 221.282 18.5662C222.053 17.9836 222.953 17.7247 223.982 17.7247C225.589 17.7247 226.811 18.2426 227.711 19.343C228.546 20.3786 228.996 21.8674 228.996 23.7445C228.996 24.1329 228.932 24.5213 228.932 24.8449ZM226.875 23.162C226.875 21.9321 226.618 21.0259 226.168 20.3786C225.718 19.7313 224.946 19.4077 224.046 19.4077C222.31 19.4077 221.346 20.7023 221.217 23.2267H226.875V23.162Z" fill="white"/>
</svg>
