<svg id="Capa_1" data-name="Capa 1" xmlns="http://www.w3.org/2000/svg" viewBox="0 0 46.08 75.08"><defs><style>.cls-1{fill:#fff;}</style></defs><title>Home</title><path class="cls-1" d="M17.56,27.11,13.71,31a1.67,1.67,0,0,0,0,2.35l3.85,3.85,2.35-2.35-2.67-2.67,2.67-2.67Z"/><path class="cls-1" d="M28.53,27.11l-2.35,2.35,2.67,2.67-2.67,2.67,2.35,2.35,3.85-3.85a1.67,1.67,0,0,0,0-2.35Z"/><rect class="cls-1" x="18.86" y="30.48" width="8.37" height="3.33" transform="translate(-14.74 43.83) rotate(-71.55)"/><path class="cls-1" d="M42.77-.59H3.32A3.11,3.11,0,0,0,0,2.26V72.81a3.11,3.11,0,0,0,3.32,2.85H42.77a3.11,3.11,0,0,0,3.32-2.85V2.26A3.11,3.11,0,0,0,42.77-.59Zm-.5,3.35V72.31H3.82V2.76Z"/><path class="cls-1" d="M23,60.05a5.16,5.16,0,1,0,5.16,5.16A5.17,5.17,0,0,0,23,60.05Zm0,7a1.83,1.83,0,1,1,1.83-1.83A1.83,1.83,0,0,1,23,67Z"/><path class="cls-1" d="M10.22,57.72H35.86a1.67,1.67,0,0,0,1.67-1.67V9.45a1.67,1.67,0,0,0-1.67-1.67H10.22A1.67,1.67,0,0,0,8.56,9.45V56.06A1.67,1.67,0,0,0,10.22,57.72Zm1.67-3.33V11.11h22.3V54.39Z"/></svg>