<svg xmlns="http://www.w3.org/2000/svg" xmlns:xlink="http://www.w3.org/1999/xlink" viewBox="0 0 82.7 76"><defs><style>.cls-1{fill:none;}.cls-2{isolation:isolate;}.cls-3{clip-path:url(#clip-path);}.cls-4{mix-blend-mode:screen;}.cls-5{fill:#fff;}</style><clipPath id="clip-path"><rect class="cls-1" x="-664.31" y="-1066.63" width="1922.5" height="721"/></clipPath></defs><title>Home</title><g class="cls-2"><g id="Capa_1" data-name="Capa 1"><path class="cls-5" d="M82.57,15.39,76.73,1.07A1.75,1.75,0,0,0,75.08,0H7.61A1.75,1.75,0,0,0,6,1.07L.12,15.39A1.64,1.64,0,0,0,0,16V27.64a9.48,9.48,0,0,0,9.68,9.25A9.87,9.87,0,0,0,17.59,33a9.94,9.94,0,0,0,15.84,0,9.94,9.94,0,0,0,15.83,0A9.94,9.94,0,0,0,65.1,33,9.87,9.87,0,0,0,73,36.89a9.48,9.48,0,0,0,9.68-9.25V16A1.6,1.6,0,0,0,82.57,15.39ZM9.68,33.52a6,6,0,0,1-6.15-5.88V16.32L8.81,3.37H73.88l5.29,12.95V27.64a6.16,6.16,0,0,1-12.31,0,1.77,1.77,0,0,0-3.53,0,6.16,6.16,0,0,1-12.31,0,1.76,1.76,0,0,0-3.53,0,6.16,6.16,0,0,1-12.31,0,1.76,1.76,0,0,0-3.53,0,6,6,0,0,1-6.16,5.88,6,6,0,0,1-6.15-5.88,1.76,1.76,0,0,0-3.53,0A6,6,0,0,1,9.68,33.52Z"/><path class="cls-5" d="M74.91,34.41a1.73,1.73,0,0,0-1.76,1.69V70.36a2.33,2.33,0,0,1-2.38,2.27H38v-28A1.73,1.73,0,0,0,36.23,43H18.32a1.73,1.73,0,0,0-1.76,1.68v28H11.93a2.33,2.33,0,0,1-2.38-2.27V36A1.76,1.76,0,0,0,6,36V70.36A5.79,5.79,0,0,0,11.93,76H70.76a5.79,5.79,0,0,0,5.91-5.64V36.09A1.73,1.73,0,0,0,74.91,34.41ZM20.09,72.16V46.32H34.47V72.16Z"/><path class="cls-5" d="M64.37,61.86a1.73,1.73,0,0,0,1.76-1.69V44.64A1.73,1.73,0,0,0,64.37,43H43.18a1.73,1.73,0,0,0-1.76,1.69V60.18a1.73,1.73,0,0,0,1.76,1.69ZM44.94,58.49V46.32H62.6V58.49Z"/></g></g></svg>