<svg id="Capa_1" data-name="Capa 1" xmlns="http://www.w3.org/2000/svg" viewBox="0 0 81.85 75.66"><defs><style>.cls-1{fill:#fff;}</style></defs><title>Home</title><path class="cls-1" d="M73.13.59H8.72A8.75,8.75,0,0,0,0,9.31V55.07A8.75,8.75,0,0,0,8.72,63.8H31.57l-2.28,8H23.73v3.89h34.4V71.77H52.56l-2.28-8H73.13a8.75,8.75,0,0,0,8.72-8.72V9.31A8.75,8.75,0,0,0,73.13.59ZM33.34,71.77l2.28-8H46.24l2.28,8ZM3.89,51.93H78v3.14a4.84,4.84,0,0,1-4.83,4.83H8.72a4.84,4.84,0,0,1-4.83-4.83Zm0-42.62A4.84,4.84,0,0,1,8.72,4.48H73.13A4.84,4.84,0,0,1,78,9.31V48H3.89Z"/><rect class="cls-1" x="28.33" y="26.04" width="25.17" height="3.89" transform="translate(2.75 59.62) rotate(-74.03)"/><path class="cls-1" d="M29.71,17.83,19.34,26.46a2,2,0,0,0-.25,2.74,2,2,0,0,0,.25.25l10.36,8.63,2.49-3L23.63,28l8.57-7.14Z"/><path class="cls-1" d="M62.51,26.46,52.15,17.83l-2.49,3L58.23,28,49.66,35.1l2.49,3,10.36-8.63a2,2,0,0,0,.25-2.74A2,2,0,0,0,62.51,26.46Z"/></svg>